<svg width="54" height="36" viewBox="0 0 54 36" fill="none" xmlns="http://www.w3.org/2000/svg">
<g id="cloudy-icon">
<path id="half-sun" fill-rule="evenodd" clip-rule="evenodd" d="M37.9815 0.562439C38.2669 0.562439 38.4982 0.772473 38.4982 1.03156V4.78456C38.4982 5.04365 38.2669 5.25369 37.9815 5.25369C37.6961 5.25369 37.4648 5.04365 37.4648 4.78456V1.03156C37.4648 0.772473 37.6961 0.562439 37.9815 0.562439ZM28.5655 11.2328C30.7427 13.3783 32.0709 16.2355 32.0709 19.3723H35.8627C39.0289 19.3723 41.8099 20.8589 43.3934 23.1C46.3471 21.4485 48.3162 18.4857 48.3162 15.1053C48.3162 9.9235 43.6892 5.72281 37.9816 5.72281C33.7948 5.72281 30.1896 7.98306 28.5655 11.2328ZM26.248 5.39109C26.4498 5.20789 26.777 5.20789 26.9788 5.39109L29.9019 8.04486C30.1037 8.22807 30.1037 8.5251 29.9019 8.70831C29.7001 8.89151 29.3729 8.89151 29.1711 8.70831L26.248 6.05453C26.0462 5.87133 26.0462 5.5743 26.248 5.39109ZM49.5378 25.5968C49.336 25.78 49.0088 25.78 48.807 25.5968L45.8839 22.9431C45.6821 22.7598 45.6821 22.4628 45.8839 22.2796C46.0857 22.0964 46.4129 22.0964 46.6147 22.2796L49.5378 24.9334C49.7396 25.1166 49.7396 25.4136 49.5378 25.5968ZM50.5714 6.32935C50.7732 6.51255 50.7732 6.80959 50.5714 6.99279L47.6484 9.64656C47.4466 9.82977 47.1194 9.82977 46.9176 9.64656C46.7158 9.46336 46.7158 9.16632 46.9176 8.98312L49.8407 6.32935C50.0425 6.14614 50.3696 6.14614 50.5714 6.32935ZM54 15.1053C54 14.8462 53.7687 14.6362 53.4833 14.6362H49.3494C49.0641 14.6362 48.8327 14.8462 48.8327 15.1053C48.8327 15.3644 49.0641 15.5744 49.3494 15.5744H53.4833C53.7687 15.5744 54 15.3644 54 15.1053Z" fill="#FFB800"/>
<path id="cloud" d="M31.3948 19.8C31.4312 19.467 31.4499 19.1292 31.4499 18.7875C31.4499 13.1956 26.4568 8.66248 20.2974 8.66248C14.1381 8.66248 9.145 13.1956 9.145 18.7875C9.145 19.1292 9.16374 19.467 9.20011 19.8H8.92196C3.99451 19.8 0 23.4265 0 27.9C0 32.3735 3.99451 36 8.92196 36H35.6878C40.6153 36 44.6098 32.3735 44.6098 27.9C44.6098 23.4265 40.6153 19.8 35.6878 19.8H31.3948Z" fill="white"/>
</g>
</svg>
