<svg width="66" height="47" viewBox="0 0 66 47" fill="none" xmlns="http://www.w3.org/2000/svg">
<path fill-rule="evenodd" clip-rule="evenodd" d="M50.575 0C50.8498 0 51.0726 0.202255 51.0726 0.45175V4.06575C51.0726 4.31525 50.8498 4.5175 50.575 4.5175C50.3002 4.5175 50.0774 4.31525 50.0774 4.06575V0.45175C50.0774 0.202255 50.3002 0 50.575 0ZM41.5078 10.2752C43.6043 12.3412 44.8833 15.0925 44.8833 18.1132H48.5347C51.5836 18.1132 54.2616 19.5447 55.7865 21.7029C58.6308 20.1125 60.5269 17.2594 60.5269 14.0043C60.5269 9.01436 56.0713 4.96925 50.5751 4.96925C46.5434 4.96925 43.0717 7.14577 41.5078 10.2752ZM39.2761 4.64981C39.4704 4.4734 39.7855 4.4734 39.9798 4.64981L42.7946 7.2053C42.9889 7.38172 42.9889 7.66775 42.7946 7.84417C42.6003 8.02059 42.2852 8.02059 42.0909 7.84417L39.2761 5.28869C39.0818 5.11227 39.0818 4.82623 39.2761 4.64981ZM61.7033 24.1072C61.509 24.2836 61.1939 24.2836 60.9996 24.1072L58.1848 21.5517C57.9904 21.3753 57.9904 21.0893 58.1848 20.9128C58.3791 20.7364 58.6941 20.7364 58.8885 20.9128L61.7033 23.4683C61.8976 23.6447 61.8976 23.9308 61.7033 24.1072ZM62.6987 5.55332C62.893 5.72974 62.893 6.01577 62.6987 6.19219L59.8839 8.74768C59.6895 8.9241 59.3745 8.9241 59.1802 8.74768C58.9858 8.57126 58.9858 8.28522 59.1802 8.10881L61.995 5.55332C62.1893 5.3769 62.5043 5.3769 62.6987 5.55332ZM66.0003 14.0042C66.0003 13.7548 65.7775 13.5525 65.5027 13.5525H61.5219C61.2471 13.5525 61.0243 13.7548 61.0243 14.0042C61.0243 14.2537 61.2471 14.456 61.5219 14.456H65.5027C65.7775 14.456 66.0003 14.2537 66.0003 14.0042Z" fill="#FFB800"/>
<path d="M44.232 18.5249C44.267 18.2042 44.2851 17.879 44.2851 17.5499C44.2851 12.1651 39.4769 7.79993 33.5457 7.79993C27.6145 7.79993 22.8063 12.1651 22.8063 17.5499C22.8063 17.879 22.8243 18.2042 22.8594 18.5249H22.5915C17.8466 18.5249 14 22.0171 14 26.3249C14 30.6328 17.8466 34.1249 22.5915 34.1249H48.3661C53.111 34.1249 56.9576 30.6328 56.9576 26.3249C56.9576 22.0171 53.111 18.5249 48.3661 18.5249H44.232Z" fill="white"/>
<path d="M10.0197 36.0501L7.95973 43.0001H6.66973L5.20973 37.7401L3.65973 43.0001L2.37973 43.0101L0.409727 36.0501H1.61973L3.05973 41.7101L4.61973 36.0501H5.89973L7.34973 41.6801L8.79973 36.0501H10.0197ZM16.01 40.1101C16.01 40.3168 15.9966 40.5035 15.97 40.6701H11.76C11.7933 41.1101 11.9566 41.4635 12.25 41.7301C12.5433 41.9968 12.9033 42.1301 13.33 42.1301C13.9433 42.1301 14.3766 41.8735 14.63 41.3601H15.86C15.6933 41.8668 15.39 42.2835 14.95 42.6101C14.5166 42.9301 13.9766 43.0901 13.33 43.0901C12.8033 43.0901 12.33 42.9735 11.91 42.7401C11.4966 42.5001 11.17 42.1668 10.93 41.7401C10.6966 41.3068 10.58 40.8068 10.58 40.2401C10.58 39.6735 10.6933 39.1768 10.92 38.7501C11.1533 38.3168 11.4766 37.9835 11.89 37.7501C12.31 37.5168 12.79 37.4001 13.33 37.4001C13.85 37.4001 14.3133 37.5135 14.72 37.7401C15.1266 37.9668 15.4433 38.2868 15.67 38.7001C15.8966 39.1068 16.01 39.5768 16.01 40.1101ZM14.82 39.7501C14.8133 39.3301 14.6633 38.9935 14.37 38.7401C14.0766 38.4868 13.7133 38.3601 13.28 38.3601C12.8866 38.3601 12.55 38.4868 12.27 38.7401C11.99 38.9868 11.8233 39.3235 11.77 39.7501H14.82ZM16.7518 40.2201C16.7518 39.6668 16.8652 39.1768 17.0918 38.7501C17.3252 38.3235 17.6385 37.9935 18.0318 37.7601C18.4318 37.5201 18.8718 37.4001 19.3518 37.4001C19.7852 37.4001 20.1618 37.4868 20.4818 37.6601C20.8085 37.8268 21.0685 38.0368 21.2618 38.2901V37.4901H22.4118V43.0001H21.2618V42.1801C21.0685 42.4401 20.8052 42.6568 20.4718 42.8301C20.1385 43.0035 19.7585 43.0901 19.3318 43.0901C18.8585 43.0901 18.4252 42.9701 18.0318 42.7301C17.6385 42.4835 17.3252 42.1435 17.0918 41.7101C16.8652 41.2701 16.7518 40.7735 16.7518 40.2201ZM21.2618 40.2401C21.2618 39.8601 21.1818 39.5301 21.0218 39.2501C20.8685 38.9701 20.6652 38.7568 20.4118 38.6101C20.1585 38.4635 19.8852 38.3901 19.5918 38.3901C19.2985 38.3901 19.0252 38.4635 18.7718 38.6101C18.5185 38.7501 18.3118 38.9601 18.1518 39.2401C17.9985 39.5135 17.9218 39.8401 17.9218 40.2201C17.9218 40.6001 17.9985 40.9335 18.1518 41.2201C18.3118 41.5068 18.5185 41.7268 18.7718 41.8801C19.0318 42.0268 19.3052 42.1001 19.5918 42.1001C19.8852 42.1001 20.1585 42.0268 20.4118 41.8801C20.6652 41.7335 20.8685 41.5201 21.0218 41.2401C21.1818 40.9535 21.2618 40.6201 21.2618 40.2401ZM25.2392 38.4201V41.4701C25.2392 41.6768 25.2858 41.8268 25.3792 41.9201C25.4792 42.0068 25.6458 42.0501 25.8792 42.0501H26.5792V43.0001H25.6792C25.1658 43.0001 24.7725 42.8801 24.4992 42.6401C24.2258 42.4001 24.0892 42.0101 24.0892 41.4701V38.4201H23.4392V37.4901H24.0892V36.1201H25.2392V37.4901H26.5792V38.4201H25.2392ZM30.4799 37.4001C30.8999 37.4001 31.2732 37.4901 31.5999 37.6701C31.9332 37.8501 32.1932 38.1168 32.3799 38.4701C32.5732 38.8235 32.6699 39.2501 32.6699 39.7501V43.0001H31.5399V39.9201C31.5399 39.4268 31.4165 39.0501 31.1699 38.7901C30.9232 38.5235 30.5865 38.3901 30.1599 38.3901C29.7332 38.3901 29.3932 38.5235 29.1399 38.7901C28.8932 39.0501 28.7699 39.4268 28.7699 39.9201V43.0001H27.6299V35.6001H28.7699V38.1301C28.9632 37.8968 29.2065 37.7168 29.4999 37.5901C29.7999 37.4635 30.1265 37.4001 30.4799 37.4001ZM39.174 40.1101C39.174 40.3168 39.1607 40.5035 39.134 40.6701H34.924C34.9574 41.1101 35.1207 41.4635 35.414 41.7301C35.7074 41.9968 36.0674 42.1301 36.494 42.1301C37.1074 42.1301 37.5407 41.8735 37.794 41.3601H39.024C38.8574 41.8668 38.554 42.2835 38.114 42.6101C37.6807 42.9301 37.1407 43.0901 36.494 43.0901C35.9674 43.0901 35.494 42.9735 35.074 42.7401C34.6607 42.5001 34.334 42.1668 34.094 41.7401C33.8607 41.3068 33.744 40.8068 33.744 40.2401C33.744 39.6735 33.8574 39.1768 34.084 38.7501C34.3174 38.3168 34.6407 37.9835 35.054 37.7501C35.474 37.5168 35.954 37.4001 36.494 37.4001C37.014 37.4001 37.4774 37.5135 37.884 37.7401C38.2907 37.9668 38.6074 38.2868 38.834 38.7001C39.0607 39.1068 39.174 39.5768 39.174 40.1101ZM37.984 39.7501C37.9774 39.3301 37.8274 38.9935 37.534 38.7401C37.2407 38.4868 36.8774 38.3601 36.444 38.3601C36.0507 38.3601 35.714 38.4868 35.434 38.7401C35.154 38.9868 34.9874 39.3235 34.934 39.7501H37.984ZM41.4359 38.2901C41.6026 38.0101 41.8226 37.7935 42.0959 37.6401C42.3759 37.4801 42.7059 37.4001 43.0859 37.4001V38.5801H42.7959C42.3492 38.5801 42.0092 38.6935 41.7759 38.9201C41.5492 39.1468 41.4359 39.5401 41.4359 40.1001V43.0001H40.2959V37.4901H41.4359V38.2901ZM47.8538 39.4301C48.2271 39.4968 48.5438 39.6935 48.8038 40.0201C49.0638 40.3468 49.1938 40.7168 49.1938 41.1301C49.1938 41.4835 49.1005 41.8035 48.9138 42.0901C48.7338 42.3701 48.4705 42.5935 48.1238 42.7601C47.7771 42.9201 47.3738 43.0001 46.9138 43.0001H44.1338V36.0501H46.7838C47.2571 36.0501 47.6638 36.1301 48.0038 36.2901C48.3438 36.4501 48.6005 36.6668 48.7738 36.9401C48.9471 37.2068 49.0338 37.5068 49.0338 37.8401C49.0338 38.2401 48.9271 38.5735 48.7138 38.8401C48.5005 39.1068 48.2138 39.3035 47.8538 39.4301ZM45.2738 38.9701H46.6838C47.0571 38.9701 47.3471 38.8868 47.5538 38.7201C47.7671 38.5468 47.8738 38.3001 47.8738 37.9801C47.8738 37.6668 47.7671 37.4235 47.5538 37.2501C47.3471 37.0701 47.0571 36.9801 46.6838 36.9801H45.2738V38.9701ZM46.8138 42.0701C47.2005 42.0701 47.5038 41.9768 47.7238 41.7901C47.9438 41.6035 48.0538 41.3435 48.0538 41.0101C48.0538 40.6701 47.9371 40.4001 47.7038 40.2001C47.4705 40.0001 47.1605 39.9001 46.7738 39.9001H45.2738V42.0701H46.8138ZM52.8226 43.0901C52.3026 43.0901 51.8326 42.9735 51.4126 42.7401C50.9926 42.5001 50.6626 42.1668 50.4226 41.7401C50.1826 41.3068 50.0626 40.8068 50.0626 40.2401C50.0626 39.6801 50.186 39.1835 50.4326 38.7501C50.6793 38.3168 51.016 37.9835 51.4426 37.7501C51.8693 37.5168 52.346 37.4001 52.8726 37.4001C53.3993 37.4001 53.876 37.5168 54.3026 37.7501C54.7293 37.9835 55.066 38.3168 55.3126 38.7501C55.5593 39.1835 55.6826 39.6801 55.6826 40.2401C55.6826 40.8001 55.556 41.2968 55.3026 41.7301C55.0493 42.1635 54.7026 42.5001 54.2626 42.7401C53.8293 42.9735 53.3493 43.0901 52.8226 43.0901ZM52.8226 42.1001C53.116 42.1001 53.3893 42.0301 53.6426 41.8901C53.9026 41.7501 54.1126 41.5401 54.2726 41.2601C54.4326 40.9801 54.5126 40.6401 54.5126 40.2401C54.5126 39.8401 54.436 39.5035 54.2826 39.2301C54.1293 38.9501 53.926 38.7401 53.6726 38.6001C53.4193 38.4601 53.146 38.3901 52.8526 38.3901C52.5593 38.3901 52.286 38.4601 52.0326 38.6001C51.786 38.7401 51.5893 38.9501 51.4426 39.2301C51.296 39.5035 51.2226 39.8401 51.2226 40.2401C51.2226 40.8335 51.3726 41.2935 51.6726 41.6201C51.9793 41.9401 52.3626 42.1001 52.8226 42.1001ZM58.1396 38.4201V41.4701C58.1396 41.6768 58.1862 41.8268 58.2796 41.9201C58.3796 42.0068 58.5462 42.0501 58.7796 42.0501H59.4796V43.0001H58.5796C58.0662 43.0001 57.6729 42.8801 57.3996 42.6401C57.1262 42.4001 56.9896 42.0101 56.9896 41.4701V38.4201H56.3396V37.4901H56.9896V36.1201H58.1396V37.4901H59.4796V38.4201H58.1396Z" fill="white"/>
</svg>
