<svg width="46" height="44" viewBox="0 0 46 44" fill="none" xmlns="http://www.w3.org/2000/svg">
<g id="thunder-icon">
<path id="cloud-icon" d="M31.6907 12.0393C31.7274 11.6794 31.7463 11.3142 31.7463 10.9449C31.7463 4.90018 26.7062 0 20.4888 0C14.2714 0 9.23121 4.90018 9.23121 10.9449C9.23121 11.3142 9.25012 11.6794 9.28684 12.0393H9.00606C4.03217 12.0393 0 15.9595 0 20.7952C0 25.631 4.03217 29.5511 9.00606 29.5511H36.0242C40.9981 29.5511 45.0303 25.631 45.0303 20.7952C45.0303 15.9595 40.9981 12.0393 36.0242 12.0393H31.6907Z" fill="white"/>
<path id="Vector 1" d="M41.9684 14.0011L23.4775 24.3032L29.0311 26.9385L11.7074 36.0733L36.4527 26.1892L30.2497 23.2935L41.9684 14.0011Z" fill="#FFB800"/>
</g>
</svg>
